<svg xmlns="http://www.w3.org/2000/svg" viewBox="0 0 74.23 49.9"><defs><style>.cls-1{isolation:isolate}.cls-2{fill:#44a1f5}.cls-3{fill:#3696dd}.cls-3,.cls-4,.cls-6{mix-blend-mode:multiply}.cls-4{fill:#b6b7b7}.cls-5,.cls-6{fill:#f9926a}.cls-7{fill:#9fa0a0}.cls-8{fill:#8d8e8e}</style></defs><title>Volcano plots</title><g class="cls-1"><g id="Layer_2" data-name="Layer 2"><g id="Layer_1-2" data-name="Layer 1"><circle class="cls-2" cx="72.32" cy="10.77" r="1.16"/><circle class="cls-2" cx="70.01" cy="13.41" r="1.16"/><circle class="cls-2" cx="68.31" cy="11.09" r="1.16"/><circle class="cls-2" cx="65.2" cy="15.16" r="1.16"/><circle class="cls-2" cx="65.2" cy="18.68" r="1.16"/><circle class="cls-2" cx="47.39" cy="18.68" r="1.16"/><circle class="cls-2" cx="49.92" cy="9.93" r="1.16"/><circle class="cls-2" cx="63.25" cy="16.6" r="1.16"/><circle class="cls-2" cx="61.05" cy="18.8" r="1.16"/><circle class="cls-2" cx="56.78" cy="18.8" r="1.16"/><circle class="cls-2" cx="61.05" cy="22.25" r="1.16"/><circle class="cls-2" cx="58.73" cy="21.4" r="1.16"/><circle class="cls-2" cx="52.53" cy="21.4" r="1.16"/><circle class="cls-2" cx="58.73" cy="24.01" r="1.16"/><circle class="cls-3" cx="56.88" cy="24.01" r="1.16"/><circle class="cls-3" cx="57.94" cy="25.06" r="1.16"/><circle class="cls-3" cx="49.23" cy="25.06" r="1.16"/><circle class="cls-3" cx="50.64" cy="31.91" r="1.16"/><circle class="cls-3" cx="49.21" cy="33.34" r="1.16"/><circle class="cls-3" cx="47.91" cy="32.04" r="1.16"/><circle class="cls-3" cx="47.91" cy="34.12" r="1.16"/><circle class="cls-3" cx="47.91" cy="35.66" r="1.16"/><circle class="cls-3" cx="46.75" cy="36.82" r="1.16"/><circle class="cls-3" cx="49.23" cy="29.59" r="1.16"/><circle class="cls-3" cx="51.08" cy="26.91" r="1.16"/><circle class="cls-3" cx="51.08" cy="29.08" r="1.16"/><circle class="cls-3" cx="52.38" cy="30.38" r="1.16"/><circle class="cls-3" cx="53.25" cy="29.08" r="1.16"/><circle class="cls-3" cx="53.89" cy="28.43" r="1.16"/><circle class="cls-3" cx="56.32" cy="25.06" r="1.16"/><circle class="cls-3" cx="56.32" cy="25.06" r="1.16"/><circle class="cls-3" cx="56.78" cy="26.22" r="1.16"/><circle class="cls-3" cx="55.23" cy="27.77" r="1.16"/><circle class="cls-3" cx="55.16" cy="24.6" r="1.16"/><circle class="cls-3" cx="55.16" cy="26.92" r="1.16"/><circle class="cls-3" cx="52.53" cy="25.76" r="1.16"/><circle class="cls-2" cx="62.88" cy="11.09" r="1.16"/><circle class="cls-2" cx="55.62" cy="11.09" r="1.16"/><circle class="cls-2" cx="58.73" cy="9.11" r="1.16"/><circle class="cls-4" cx="42.32" cy="13.41" r="1.16"/><circle class="cls-4" cx="37.46" cy="4.41" r="1.16"/><circle class="cls-4" cx="39.08" cy="17.76" r="1.16"/><circle class="cls-4" cx="39.08" cy="22.34" r="1.16"/><circle class="cls-4" cx="44.1" cy="22.34" r="1.16"/><circle class="cls-4" cx="42.01" cy="20.25" r="1.16"/><circle class="cls-4" cx="42.01" cy="26.91" r="1.16"/><circle class="cls-4" cx="45.62" cy="26.91" r="1.16"/><circle class="cls-4" cx="45.62" cy="29.59" r="1.16"/><circle class="cls-4" cx="42.01" cy="29.59" r="1.16"/><circle class="cls-4" cx="40.24" cy="29.59" r="1.16"/><circle class="cls-4" cx="38.56" cy="27.91" r="1.16"/><circle class="cls-4" cx="37.32" cy="29.14" r="1.16"/><circle class="cls-4" cx="38.37" cy="30.19" r="1.16"/><circle class="cls-4" cx="40.35" cy="32.17" r="1.16"/><circle class="cls-4" cx="42.94" cy="32.17" r="1.16"/><circle class="cls-4" cx="44.46" cy="32.17" r="1.16"/><circle class="cls-4" cx="44.46" cy="34.5" r="1.16"/><circle class="cls-4" cx="41.51" cy="34.5" r="1.16"/><circle class="cls-4" cx="38.37" cy="34.5" r="1.16"/><circle class="cls-4" cx="38.37" cy="36.83" r="1.16"/><circle class="cls-4" cx="41.22" cy="36.83" r="1.16"/><circle class="cls-4" cx="43.74" cy="36.83" r="1.16"/><circle class="cls-4" cx="42.94" cy="35.95" r="1.16"/><circle class="cls-4" cx="42.94" cy="37.74" r="1.16"/><circle class="cls-4" cx="42.94" cy="39.43" r="1.16"/><circle class="cls-4" cx="44.04" cy="38.33" r="1.16"/><circle class="cls-4" cx="45.2" cy="38.33" r="1.16"/><circle class="cls-4" cx="43.93" cy="39.6" r="1.16"/><circle class="cls-4" cx="41.16" cy="42.52" r="1.16"/><circle class="cls-4" cx="41.51" cy="40.99" r="1.16"/><circle class="cls-4" cx="40.06" cy="40.99" r="1.16"/><circle class="cls-4" cx="38.62" cy="39.54" r="1.16"/><circle class="cls-4" cx="37.4" cy="38.33" r="1.16"/><circle class="cls-4" cx="41.16" cy="38.33" r="1.16"/><circle class="cls-4" cx="41.16" cy="40.59" r="1.16"/><circle class="cls-4" cx="40.85" cy="27.91" r="1.16"/><circle class="cls-2" cx="64.04" cy="8.45" r="1.16"/><circle class="cls-5" cx="10.12" cy="10.77" r="1.16"/><circle class="cls-5" cx="12.44" cy="13.41" r="1.16"/><circle class="cls-5" cx="14.13" cy="11.09" r="1.16"/><circle class="cls-5" cx="17.24" cy="15.16" r="1.16"/><circle class="cls-5" cx="17.24" cy="18.68" r="1.16"/><circle class="cls-5" cx="35.06" cy="18.68" r="1.16"/><circle class="cls-5" cx="31.52" cy="15.14" r="1.16"/><circle class="cls-5" cx="19.19" cy="16.6" r="1.16"/><circle class="cls-5" cx="21.39" cy="18.8" r="1.16"/><circle class="cls-5" cx="25.66" cy="18.8" r="1.16"/><circle class="cls-5" cx="21.39" cy="22.25" r="1.16"/><circle class="cls-5" cx="23.71" cy="21.4" r="1.16"/><circle class="cls-5" cx="29.92" cy="21.4" r="1.16"/><circle class="cls-5" cx="23.71" cy="24.01" r="1.16"/><circle class="cls-6" cx="25.56" cy="24.01" r="1.16"/><circle class="cls-6" cx="24.51" cy="25.06" r="1.16"/><circle class="cls-6" cx="33.21" cy="25.06" r="1.16"/><circle class="cls-6" cx="31.8" cy="31.91" r="1.16"/><circle class="cls-6" cx="33.24" cy="33.34" r="1.16"/><circle class="cls-6" cx="34.53" cy="32.04" r="1.16"/><circle class="cls-6" cx="34.53" cy="34.12" r="1.16"/><circle class="cls-6" cx="34.53" cy="35.66" r="1.16"/><circle class="cls-6" cx="35.69" cy="36.82" r="1.16"/><circle class="cls-6" cx="33.21" cy="29.59" r="1.16"/><circle class="cls-6" cx="31.36" cy="26.91" r="1.16"/><circle class="cls-6" cx="31.36" cy="29.08" r="1.16"/><circle class="cls-6" cx="30.06" cy="30.38" r="1.16"/><circle class="cls-6" cx="29.19" cy="29.08" r="1.16"/><circle class="cls-6" cx="28.55" cy="28.43" r="1.16"/><circle class="cls-6" cx="26.13" cy="25.06" r="1.16"/><circle class="cls-6" cx="26.13" cy="25.06" r="1.16"/><circle class="cls-6" cx="25.66" cy="26.22" r="1.16"/><circle class="cls-6" cx="27.21" cy="27.77" r="1.16"/><circle class="cls-6" cx="27.28" cy="24.6" r="1.16"/><circle class="cls-6" cx="27.28" cy="26.92" r="1.16"/><circle class="cls-6" cx="29.92" cy="25.76" r="1.16"/><circle class="cls-5" cx="19.56" cy="11.09" r="1.16"/><circle class="cls-5" cx="23.81" cy="11.09" r="1.16"/><circle class="cls-5" cx="27.6" cy="5.57" r="1.16"/><circle class="cls-5" cx="18.4" cy="8.45" r="1.16"/><circle class="cls-5" cx="32.68" cy="8.45" r="1.16"/><path class="cls-7" d="M11.7 48.6h4.36v1.29H11.7zM0 44.57h1.9v1.29H0zm0-8.89h1.9v1.29H0zm0-8.88h1.9v1.29H0zm0-8.88h1.9v1.29H0zm0-8.88h1.9v1.29H0zM0 0h1.9v1.29H0zm28.82 48.6h4.36v1.29h-4.36zm17.47 0h4.36v1.29h-4.36zm17.22 0h4.36v1.29h-4.36z"/><path class="cls-8" d="M74.23 46.46H4.95V0h.5v45.96h68.78v.5z"/></g></g></g></svg>